<?xml version="1.0" encoding="utf-8"?>
<!-- Generator: Adobe Illustrator 16.0.0, SVG Export Plug-In . SVG Version: 6.00 Build 0)  -->
<!DOCTYPE svg PUBLIC "-//W3C//DTD SVG 1.1//EN" "http://www.w3.org/Graphics/SVG/1.1/DTD/svg11.dtd">
<svg version="1.1" id="Layer_1" xmlns="http://www.w3.org/2000/svg" xmlns:xlink="http://www.w3.org/1999/xlink" x="0px" y="0px"
	 width="88.404px" height="67.15px" viewBox="0 0 88.404 67.15" enable-background="new 0 0 88.404 67.15" xml:space="preserve">
<path fill="#93AD21" d="M34.775,11.69C22.748,11.69,13,21.438,13,33.465C13,45.49,22.748,55.24,34.775,55.24
	c12.024,0,21.772-9.75,21.772-21.775C56.549,21.438,46.801,11.69,34.775,11.69z M34.775,49.56c-8.889,0-16.096-7.207-16.096-16.095
	c0-8.89,7.207-16.095,16.096-16.095c8.888,0,16.094,7.205,16.094,16.095C50.869,42.353,43.663,49.56,34.775,49.56z"/>
<path fill="#247AA6" d="M74.414,45.19c-0.004-0.008-0.01-0.014-0.014-0.021c-0.007-0.012-0.01-0.025-0.019-0.038
	c-0.09-0.157-0.19-0.302-0.314-0.415c-0.28-0.26-0.815-0.387-1.606-0.375c-0.046,0-0.102,0.002-0.162,0.008
	c-0.148,0.043-0.303,0.077-0.465,0.087c-0.114,0.008-0.587,0.068-0.485,0.028c-1.205,0.176-2.888,0.483-3.433,0.51
	c-0.764,0.036-1.27-0.062-1.521-0.298c-0.126-0.115-0.251-0.295-0.376-0.542c-0.125-0.244-1.156-3.078-1.918-10.453
	c-0.765-7.374,0.871-10.214,1.449-10.895c0.233-0.252,0.731-0.391,1.495-0.412c0.763-0.022,1.541,0.009,2.336,0.093
	c0.038,0.005,0.078,0.007,0.116,0.011c0.021,0.002,0.043,0.003,0.064,0.005c0.582,0.056,1.163,0.072,1.742,0.056
	c0.099-0.019,0.197-0.031,0.303-0.031h0.275c0,0,0.001,0.001,0.002,0.001c0.142-0.013,0.271-0.029,0.394-0.05
	c0.065-0.025,0.131-0.052,0.191-0.068c0.065-0.02,0.137-0.027,0.204-0.038c0.019-0.004,0.035-0.007,0.054-0.012
	c0.012-0.003,0.021-0.003,0.031-0.005c0.12-0.116,0.256-0.221,0.411-0.313c0.086-0.05,0.173-0.095,0.26-0.142
	c0.128-0.171,0.232-0.362,0.306-0.592c0.048-0.158,0.627-2.965,1.154-5.584c-0.005-0.244,0.051-0.492,0.146-0.727
	c0.399-1.995,0.736-3.716,0.731-3.815c-0.021-0.543-1.233-1.422-2.061-1.635c-6.666-1.714-10.023,1.176-11.146,2.528
	c-1.15,1.389-6.76,9.119-5.929,21.903c1.033,15.887,7.219,21.032,7.598,21.385c1.289,1.192,5.89,4.139,11.308,1.66
	c0.775-0.354,1.943-1.165,1.928-1.789c-0.006-0.228-2.821-9.513-2.936-9.797C74.497,45.334,74.453,45.265,74.414,45.19z"/>
<path fill="#FF9933" d="M193.755,52.189l-17.291-14.714l6.285-4.01h-6.188l-11.01,7.025l-25.109-16.025h25.109v-3h-32.232v36.001
	h64.464V33.465h-4.029v18.724H193.755z M137.347,26.439l17.289,11.034l-17.289,14.714V26.439z M140.022,54.466l17.674-15.039
	l7.854,5.013l7.856-5.013l17.671,15.039H140.022z M193.755,18.464c0.739-3.006-1.005-6.053-4.428-7.735
	c-3.423-1.687-7.868-1.687-11.292,0c-3.423,1.682-5.167,4.729-4.428,7.735h-4.029v12.001h28.204V18.464H193.755z M185.697,27.465
	h-4.03v-6h4.03V27.465z M189.724,18.464h-12.087c-0.752-1.916,0.213-3.976,2.396-5.133c2.184-1.154,5.112-1.154,7.294,0
	C189.511,14.489,190.475,16.549,189.724,18.464z"/>
</svg>
