<?xml version="1.0" encoding="utf-8"?>
<!-- Generator: Adobe Illustrator 19.1.0, SVG Export Plug-In . SVG Version: 6.00 Build 0)  -->
<svg version="1.1" id="Layer_1" xmlns="http://www.w3.org/2000/svg" xmlns:xlink="http://www.w3.org/1999/xlink" x="0px" y="0px"
	 viewBox="-435 247.9 88.4 67.2" style="enable-background:new -435 247.9 88.4 67.2;" xml:space="preserve" width="88.404px" height="67.15px">
<style type="text/css">
	.st0{fill:#00B7D3;}
	.st1{opacity:0.86;fill:#777A7A;enable-background:new    ;}
	.st2{fill:#F7F9F9;}
	.st3{font-family:'SignPainter-HouseScript';}
	.st4{font-size:36.5711px;}
	.st5{fill:#FFFFFF;}
</style>
<g>
	<g>
		<path class="st0" d="M-364.4,265.6c0-3.2-2.6-5.9-5.9-5.9h-41c-3.2,0-5.9,2.6-5.9,5.9v35.7c0,3.2,2.6,5.9,5.9,5.9h41
			c3.2,0,5.9-2.6,5.9-5.9V265.6z"/>
	</g>
</g>
<path class="st1" d="M-385.4,296.4l18.1-28.8c0.2-0.3,0.5-0.4,0.8-0.2l0,0c0.3,0.2,0.4,0.5,0.2,0.8l-18.1,28.8
	c-0.2,0.3-0.5,0.4-0.8,0.2l0,0C-385.5,297-385.6,296.7-385.4,296.4z"/>
<path class="st2" d="M-385.7,295.8l18.1-28.8c0.2-0.3,0.5-0.4,0.8-0.2l0,0c0.3,0.2,0.4,0.5,0.2,0.8l-18.1,28.7
	c-0.2,0.3-0.5,0.4-0.8,0.2l0,0C-385.8,296.4-385.9,296.1-385.7,295.8z"/>
<path class="st2" d="M-388.6,294l18.1-28.8c0.2-0.3,0.5-0.4,0.8-0.2l0,0c0.3,0.2,0.4,0.5,0.2,0.8l-18.1,28.8
	c-0.2,0.3-0.5,0.4-0.8,0.2l0,0C-388.7,294.6-388.8,294.3-388.6,294z"/>
<rect x="-395.1" y="280.3" transform="matrix(0.5319 -0.8468 0.8468 0.5319 -414.6521 -188.2277)" class="st2" width="35.1" height="1.2"/>
<path class="st1" d="M-369,264L-369,264c0.4-0.6,1-0.7,1.5-0.4l2.1,1.3c0.5,0.3,0.6,0.9,0.3,1.4v0.1c-0.3,0.5-0.9,0.6-1.4,0.3
	l-2.1-1.3C-369.1,265.2-369.3,264.5-369,264z"/>
<path class="st2" d="M-369.4,263.5L-369.4,263.5c0.4-0.6,1-0.7,1.5-0.4l2.1,1.3c0.5,0.3,0.6,0.9,0.3,1.4v0.1
	c-0.3,0.5-0.9,0.6-1.4,0.3l-2.1-1.3C-369.6,264.6-369.7,263.9-369.4,263.5z"/>
<polygon class="st1" points="-385.6,297.8 -388.7,295.8 -391,303.1 "/>
<polygon class="st2" points="-385.8,297.4 -389.1,295.3 -391.7,303.1 "/>
<g>
	<text transform="matrix(1 0 0 1 -411.9454 289.8399)" class="st1 st3 st4">A+</text>
	<text transform="matrix(1 0 0 1 -413.0751 289.8399)" class="st2 st3 st4">A+</text>
</g>
<g>
	<g>
		<path class="st5" d="M-392.4,302.3c-0.4-2.3,0.2-4.9-0.9-7c-0.9-1.7-2.6-2.8-4.4-3.3c-5.5-1.5-12.9,3.1-17.6-1.1
			c-0.5-0.5-1.3,0.3-0.8,0.8c3.5,3.1,8.3,1.8,12.5,1.3c3-0.4,6.4-0.5,8.6,1.9c1.8,2.1,1.1,5.3,1.5,7.8
			C-393.3,303.3-392.2,303-392.4,302.3L-392.4,302.3z"/>
	</g>
</g>
</svg>
