<?xml version="1.0" standalone="no"?>
<!DOCTYPE svg PUBLIC "-//W3C//DTD SVG 20010904//EN"
 "http://www.w3.org/TR/2001/REC-SVG-20010904/DTD/svg10.dtd">
<svg version="1.0" xmlns="http://www.w3.org/2000/svg"
 width="16.000000pt" height="16.000000pt" viewBox="0 0 16.000000 16.000000"
 preserveAspectRatio="xMidYMid meet">
<metadata>
Created by potrace 1.11, written by Peter Selinger 2001-2013
</metadata>
<g transform="translate(0.000000,16.000000) scale(0.001418,-0.001418)"
fill="#000000" stroke="none">
<path d="M3214 9892 c-13 -2 -29 -19 -43 -45 -12 -23 -33 -60 -47 -82 -13 -22
-29 -52 -35 -67 -6 -16 -14 -28 -18 -28 -4 0 -18 -22 -31 -50 -13 -27 -27 -50
-32 -50 -5 0 -7 -4 -4 -8 3 -5 -5 -20 -17 -33 -12 -13 -21 -25 -20 -26 3 -4
-9 -37 -16 -43 -3 -3 -11 -14 -17 -25 -6 -11 -46 -81 -89 -155 -43 -74 -99
-171 -123 -215 -25 -44 -48 -82 -51 -85 -3 -3 -16 -26 -29 -52 -13 -27 -27
-48 -31 -48 -4 0 -8 -6 -8 -12 0 -11 -75 -145 -122 -218 -8 -14 -16 -27 -16
-30 0 -3 -13 -24 -28 -47 -15 -24 -27 -45 -27 -48 0 -2 -18 -34 -40 -70 -22
-36 -40 -68 -40 -71 0 -3 -13 -25 -30 -48 -16 -24 -26 -46 -23 -50 4 -3 2 -6
-4 -6 -6 0 -13 -8 -16 -17 -4 -10 -18 -36 -32 -58 -13 -22 -28 -47 -32 -55 -3
-8 -26 -47 -50 -87 -24 -39 -43 -76 -43 -82 0 -6 -5 -11 -10 -11 -6 0 -9 -3
-8 -7 1 -5 -5 -19 -13 -33 -68 -109 -84 -135 -85 -148 -2 -7 -9 -21 -17 -30
-8 -10 -27 -42 -43 -72 -16 -30 -32 -57 -35 -60 -4 -3 -18 -27 -33 -55 -15
-27 -31 -57 -36 -65 -45 -73 -90 -151 -90 -156 0 -3 -8 -18 -19 -32 -10 -15
-30 -48 -45 -74 -14 -27 -38 -69 -53 -95 -14 -27 -31 -57 -37 -68 -6 -10 -17
-25 -24 -33 -6 -7 -12 -18 -12 -23 0 -5 -11 -28 -26 -50 -24 -39 -40 -67 -92
-159 -14 -25 -35 -61 -47 -80 -12 -19 -25 -42 -29 -50 -4 -8 -12 -24 -19 -35
-7 -11 -27 -47 -46 -80 -19 -33 -40 -67 -48 -77 -8 -9 -15 -23 -17 -30 -1 -13
-17 -39 -85 -148 -8 -14 -14 -28 -13 -32 1 -5 -3 -8 -8 -8 -6 0 -10 -5 -10
-11 0 -6 -19 -43 -43 -82 -24 -40 -47 -79 -50 -87 -4 -8 -17 -31 -28 -50 -12
-19 -33 -55 -47 -80 -14 -25 -33 -57 -43 -72 -11 -14 -19 -29 -19 -32 0 -4
-11 -23 -23 -44 -13 -20 -38 -62 -54 -92 -17 -30 -39 -68 -48 -85 l-17 -30 50
-82 c28 -46 49 -83 46 -83 -3 0 2 -7 10 -16 9 -8 16 -21 16 -28 0 -7 8 -21 18
-32 9 -11 28 -42 42 -69 14 -28 27 -52 30 -55 3 -3 11 -16 18 -29 60 -106 93
-164 113 -196 11 -16 22 -37 26 -45 4 -8 27 -49 51 -90 47 -78 72 -121 104
-180 11 -19 33 -57 49 -85 16 -27 34 -61 40 -75 6 -14 17 -32 24 -40 17 -18
73 -117 81 -142 4 -10 10 -18 15 -18 5 0 9 -4 9 -9 0 -5 23 -47 50 -94 28 -47
50 -90 50 -96 0 -6 3 -11 8 -11 4 0 18 -23 31 -50 14 -28 29 -50 33 -50 4 0 8
-6 8 -12 0 -7 23 -51 51 -98 61 -101 82 -138 116 -202 14 -26 29 -48 34 -48 5
0 9 -7 9 -15 0 -9 18 -44 40 -79 22 -35 40 -68 40 -75 0 -6 3 -11 8 -11 4 0
12 -10 17 -23 17 -35 59 -112 66 -117 3 -3 12 -18 21 -35 8 -16 48 -86 88
-155 105 -180 110 -189 143 -250 17 -30 34 -57 39 -58 4 -2 6 -8 2 -13 -3 -5
0 -9 5 -9 6 0 11 -4 11 -10 0 -8 81 -151 140 -250 13 -20 103 -176 129 -222
29 -52 57 -101 83 -145 12 -21 35 -63 52 -93 16 -30 33 -57 36 -60 4 -3 13
-20 21 -37 8 -18 17 -33 21 -33 5 0 8 -4 8 -10 0 -5 19 -42 43 -82 23 -40 51
-90 62 -110 11 -21 23 -38 26 -38 4 0 13 -16 19 -35 6 -19 16 -35 21 -35 5 0
9 -5 9 -10 0 -6 15 -35 33 -66 17 -31 43 -75 56 -97 13 -23 41 -72 62 -108
l38 -66 2469 0 2470 0 32 56 c18 31 42 69 52 84 11 16 21 35 22 43 1 7 9 21
18 31 8 10 22 32 30 48 18 37 64 119 93 165 12 19 25 42 28 50 4 8 16 29 27
45 11 17 26 44 35 60 8 17 26 48 40 70 14 22 28 47 32 55 4 8 26 48 50 88 24
40 43 77 43 82 0 6 4 10 9 10 5 0 13 10 17 23 3 12 14 33 24 47 10 14 30 48
45 75 15 28 51 91 80 140 30 50 68 118 86 153 18 34 36 62 41 62 4 0 8 6 8 14
0 7 9 25 21 40 11 14 17 26 12 26 -4 0 -3 4 2 8 10 7 16 17 56 90 11 20 29 51
39 67 10 17 31 52 45 79 44 81 50 91 56 96 3 3 23 37 44 75 21 39 49 85 61
104 13 19 21 38 18 43 -3 4 0 8 5 8 6 0 11 7 11 15 0 8 5 15 10 15 6 0 10 7
10 15 0 8 5 15 12 15 6 0 9 2 6 5 -5 5 78 155 99 180 5 6 12 18 16 28 4 10 29
56 57 103 27 46 50 89 50 94 0 6 4 10 8 10 4 0 13 12 20 28 7 15 23 45 36 67
24 42 100 173 276 480 57 99 108 182 112 183 4 2 8 12 8 23 0 10 3 19 8 19 4
0 12 9 17 20 40 79 70 130 77 130 4 0 8 5 8 11 0 11 185 338 221 390 10 14 16
29 12 33 -3 3 -1 6 5 6 7 0 12 4 12 9 0 8 80 152 90 161 3 3 14 23 25 45 11
22 25 47 31 55 6 8 23 36 37 62 22 40 24 50 14 72 -7 14 -15 26 -19 26 -5 0
-8 4 -8 9 0 5 -19 42 -43 83 -24 40 -55 94 -69 119 -48 86 -53 94 -67 112 -8
9 -10 17 -5 17 5 0 4 4 -2 8 -6 4 -24 31 -40 59 -16 29 -62 109 -101 178 -40
69 -73 129 -73 134 0 5 -4 11 -8 13 -5 2 -22 28 -39 58 -72 130 -87 155 -97
162 -6 4 -7 8 -3 8 5 0 -1 13 -12 29 -12 16 -21 34 -21 40 0 6 -4 11 -10 11
-5 0 -10 4 -10 9 0 10 -80 153 -90 161 -3 3 -14 21 -23 40 -10 19 -28 53 -42
75 -14 22 -29 49 -34 61 -14 32 -74 128 -84 135 -5 3 -8 9 -8 13 1 6 -22 53
-46 91 -7 11 -18 31 -25 45 -6 14 -20 36 -29 50 -10 14 -32 53 -50 85 -17 33
-38 67 -45 76 -8 8 -14 18 -14 21 0 4 -19 39 -43 80 -24 40 -57 98 -74 128
-17 30 -54 96 -83 145 -29 50 -64 110 -78 135 -13 25 -28 50 -32 55 -4 6 -19
31 -33 56 -41 76 -52 94 -57 99 -3 3 -11 16 -18 30 -22 43 -56 103 -87 155
-16 28 -35 59 -42 70 -6 11 -20 36 -29 55 -10 19 -24 41 -30 48 -7 6 -16 22
-20 35 -4 12 -10 24 -13 27 -7 5 -70 114 -168 288 -13 23 -52 91 -87 151 -34
59 -66 114 -70 122 -4 8 -12 23 -19 34 -43 71 -87 147 -87 151 0 3 -15 28 -33
57 -18 29 -36 59 -40 67 -4 8 -18 33 -31 55 -14 22 -33 56 -43 75 -9 19 -19
37 -22 40 -8 7 -46 74 -73 128 -17 32 -28 42 -47 43 -66 3 -4889 4 -4907 1z"/>
</g>
</svg>
